PathFileType	4	(X/Y/Z)	s04c0202.trc
DataRate	CameraRate	NumFrames	NumMarkers	Units	OrigDataRate	OrigDataStartFrame	OrigNumFrames
200	200	5	50	mm	200	0	2000
Frame#	Time	racr			lacr			c7			jug			rlel			rdr			llel			ldr			s2			lic			ric			lasi			rasi			rpsi			lpsi			rgt			lgt			rth1			rth2			rth3			rth4			rlfc			rmfc			rsh1			rsh2			rsh3			rsh4			rlmal			rmmal			rcal			rtoe			rmt5			lth1			lth2			lth4			lth3			llfc			lmfc			lsh1			lsh2			lsh3			lsh4			llmal			lmmal			lcal			ltoe			lmt5			SBIKE			LBIKE			RBIKE			
		X1	Y1	Z1	X2	Y2	Z2	X3	Y3	Z3	X4	Y4	Z4	X5	Y5	Z5	X6	Y6	Z6	X7	Y7	Z7	X8	Y8	Z8	X9	Y9	Z9	X10	Y10	Z10	X11	Y11	Z11	X12	Y12	Z12	X13	Y13	Z13	X14	Y14	Z14	X15	Y15	Z15	X16	Y16	Z16	X17	Y17	Z17	X18	Y18	Z18	X19	Y19	Z19	X20	Y20	Z20	X21	Y21	Z21	X22	Y22	Z22	X23	Y23	Z23	X24	Y24	Z24	X25	Y25	Z25	X26	Y26	Z26	X27	Y27	Z27	X28	Y28	Z28	X29	Y29	Z29	X30	Y30	Z30	X31	Y31	Z31	X32	Y32	Z32	X33	Y33	Z33	X34	Y34	Z34	X35	Y35	Z35	X36	Y36	Z36	X37	Y37	Z37	X38	Y38	Z38	X39	Y39	Z39	X40	Y40	Z40	X41	Y41	Z41	X42	Y42	Z42	X43	Y43	Z43	X44	Y44	Z44	X45	Y45	Z45	X46	Y46	Z46	X47	Y47	Z47	X48	Y48	Z48	X49	Y49	Z49	X50	Y50	Z50	
0	0.0000	466.011224	1477.349682	-138.926303	461.619247	1463.227452	-434.058094	442.662288	1522.910317	-292.854682	459.665018	1375.990501	-286.560574	499.954636	1163.056389	-38.470230	796.756080	1027.352290	-220.988985	487.582977	1172.430203	-529.987867	636.018183	839.356971	-504.447463	-59.637822	1176.473490	-292.765072	100.808784	1188.915199	-443.491557	101.721871	1169.384162	-128.206581	134.018816	1140.251249	-399.283288	146.477382	1116.426011	-172.935581	-26.540655	1212.766284	-245.582085	-32.144842	1221.317031	-321.091564	48.174339	1106.391376	-116.613919	59.519196	1119.558639	-488.322025	127.756634	959.036310	-94.327470	181.903652	890.532037	-104.086318	197.661781	805.829188	-108.701764	211.076627	905.046652	-122.993928	240.820795	666.627970	-134.777416	213.048297	649.184111	-244.834331	177.606032	556.238490	-107.410618	161.372760	468.003260	-120.050834	100.790692	404.451113	-124.682325	187.954509	457.488313	-146.442873	44.748147	262.380738	-132.476247	63.413679	266.733403	-218.504981	-29.952049	234.772847	-171.720741	266.228343	186.841516	-161.736619	197.069604	170.793520	-106.248504	122.637980	1069.168434	-493.812201	208.228538	1061.045136	-500.635877	221.827196	1092.016088	-485.669809	280.206578	1009.594775	-513.173448	419.754781	928.028673	-496.784812	457.659865	913.390055	-388.006281	377.667291	821.368013	-510.078861	351.360551	742.409435	-482.071691	286.290652	682.342459	-473.582011	375.905741	733.996499	-452.849704	201.646121	566.180506	-451.616180	202.881493	574.760681	-363.539377	118.816483	554.371488	-403.585403	414.999559	501.777027	-421.572256	337.622423	473.868772	-479.556434	-220.909836	919.443210	-287.945042	-17.528677	79.347355	-485.601615	-17.521571	79.322854	-84.818487	
1	0.0050	466.060905	1477.389918	-139.014747	461.619466	1463.249420	-434.030172	442.672630	1522.892683	-292.830789	459.657572	1375.978769	-286.533334	500.209585	1163.256569	-38.348892	795.421693	1025.631621	-222.880599	487.588358	1172.473871	-529.971553	636.379504	839.123533	-504.719080	-59.672516	1176.428545	-292.729120	100.808470	1188.924830	-443.492497	101.769684	1169.342106	-128.249233	134.030288	1140.263795	-399.266536	146.494136	1116.439995	-172.920896	-26.529948	1212.731870	-245.524765	-32.119279	1221.324482	-321.091160	48.201148	1106.385394	-116.613950	59.557755	1119.564618	-488.303358	127.803397	959.036651	-94.301201	181.882826	890.564944	-104.052637	197.677384	805.815344	-108.710295	211.097013	905.080915	-122.907356	240.825217	666.637404	-134.755898	213.042043	649.218707	-244.830474	177.629399	556.231937	-107.398136	161.406867	467.976452	-120.033093	100.830955	404.429074	-124.675658	187.984956	457.508799	-146.411592	44.840366	262.343862	-132.477037	63.523313	266.681243	-218.505345	-29.874470	234.724809	-171.717482	266.293116	186.809154	-161.736470	197.142980	170.755149	-106.237569	122.672780	1069.195993	-493.786162	208.273564	1061.063862	-500.566086	221.856451	1092.034555	-485.601170	280.257968	1009.621900	-513.081969	419.791655	928.056585	-496.632553	457.660435	913.410799	-387.874937	377.653151	821.412162	-509.982990	351.353872	742.449407	-481.991985	286.253176	682.404201	-473.517986	375.893412	734.036247	-452.763814	201.589160	566.250157	-451.601333	202.816909	574.818942	-363.503792	118.758711	554.450407	-403.571262	414.923426	501.792177	-421.545300	337.552740	473.925366	-479.541165	-220.753040	919.175745	-288.864658	-17.523750	79.365537	-485.576165	-17.524420	79.335223	-84.845486	
2	0.0100	466.072069	1477.475180	-139.095131	461.644948	1463.243545	-434.031425	442.700890	1522.887191	-292.877807	459.663295	1376.002390	-286.585104	500.435678	1163.450778	-38.217354	795.414206	1025.638970	-222.906931	487.625548	1172.524987	-529.983415	636.359920	839.146089	-504.754185	-59.669095	1176.422962	-292.707805	100.804399	1188.948197	-443.479123	101.791090	1169.301245	-128.275004	134.008773	1140.278839	-399.217123	146.496188	1116.439319	-172.907162	-26.509693	1212.729925	-245.552358	-32.122039	1221.321415	-321.064078	48.215037	1106.358625	-116.607256	59.570693	1119.568248	-488.286962	127.796841	959.021049	-94.271112	181.881232	890.542659	-104.043760	197.671654	805.786997	-108.688828	211.093118	905.062239	-122.897839	240.817917	666.623324	-134.740250	213.052933	649.205451	-244.803050	177.658648	556.202997	-107.375309	161.444466	467.952875	-120.015534	100.897023	404.389319	-124.653673	188.027922	457.485545	-146.392692	44.922759	262.278559	-132.457850	63.621525	266.637080	-218.512758	-29.781086	234.676632	-171.701405	266.396230	186.749402	-161.759932	197.241440	170.713292	-106.238875	122.702493	1069.187842	-493.746260	208.302407	1061.080635	-500.505718	221.889246	1092.056012	-485.527941	280.310272	1009.656854	-512.984451	419.833873	928.090285	-496.518784	457.667191	913.414704	-387.766610	377.653908	821.467887	-509.893508	351.341423	742.498542	-481.916533	286.208918	682.481743	-473.478180	375.861497	734.053218	-452.683435	201.539962	566.321187	-451.583617	202.761115	574.858801	-363.475341	118.681819	554.549122	-403.574342	414.847419	501.824953	-421.564161	337.470805	473.967634	-479.545777	-220.769732	919.261904	-288.626024	-17.530348	79.354710	-485.571495	-17.518947	79.309100	-84.840202	
3	0.0150	466.084796	1477.560432	-139.176340	461.675496	1463.287062	-434.073923	442.716893	1522.878475	-292.890988	459.667849	1375.997411	-286.536015	500.677120	1163.602349	-38.088557	795.291306	1024.996684	-222.545102	487.641295	1172.573387	-530.007069	636.335336	839.061218	-504.737829	-59.872739	1176.521001	-293.026957	100.767824	1188.947528	-443.445949	101.966902	1169.228674	-128.289101	134.008342	1140.297356	-399.220068	146.531556	1116.647247	-172.668232	-26.516973	1212.730860	-245.517928	-32.127801	1221.341026	-321.048530	48.235075	1106.362715	-116.602532	59.562801	1119.569816	-488.269590	127.915338	959.170772	-94.143631	182.431001	890.234233	-103.427684	197.666574	805.785579	-108.675730	211.089354	905.054376	-122.892337	240.840839	666.622343	-134.717019	213.046658	649.196973	-244.788451	177.673594	556.188574	-107.357905	160.307713	466.977549	-120.909632	100.933486	404.346552	-124.642825	188.032146	456.989287	-146.600944	44.954313	262.269252	-132.226940	63.722013	266.592921	-218.484484	-29.696571	234.627590	-171.713162	266.481501	186.694959	-161.752801	197.359440	170.647478	-106.222659	122.888668	1069.487770	-493.991243	208.339959	1061.093011	-500.445549	221.673277	1092.293224	-485.874303	280.355417	1009.684349	-512.873833	419.784744	928.151532	-496.342200	458.043778	912.542875	-388.120295	377.657643	821.507750	-509.784581	351.358249	742.557917	-481.950406	286.375264	682.429412	-472.957035	375.896799	734.132025	-452.800451	201.516017	566.241727	-451.309710	202.598758	574.958184	-363.186523	118.619337	554.619186	-403.541689	414.777231	501.844947	-421.561411	337.482622	473.926412	-479.465135	-220.725314	919.373068	-288.257088	-17.535254	79.349683	-485.570919	-17.522756	79.320734	-84.844386	
4	0.0200	466.125111	1477.602439	-139.316553	461.673194	1463.246087	-434.061325	442.737561	1522.884608	-292.917018	459.655755	1376.012205	-286.543637	500.938825	1163.852726	-37.870964	795.443440	1025.734857	-222.921047	487.666065	1172.624318	-530.042654	636.370615	839.277252	-504.782579	-59.865805	1176.802884	-293.468171	100.763922	1188.968779	-443.397958	101.934423	1169.291062	-128.580502	133.735353	1139.779245	-398.742875	146.541946	1116.658264	-172.675305	-26.478956	1212.822294	-245.508184	-32.118588	1221.462878	-320.914598	48.269403	1106.462793	-116.538008	59.511094	1119.413482	-488.049900	127.946623	959.133521	-94.187532	182.357790	890.100916	-103.805869	197.681909	805.772924	-108.672620	211.095722	905.051446	-122.864128	240.871186	666.612300	-134.696048	213.042529	649.277101	-244.770529	177.737179	556.185452	-107.349223	160.414026	466.975314	-120.940818	100.990803	404.302918	-124.658868	188.114433	456.951497	-146.658184	45.093781	262.306558	-131.997286	63.919891	266.639742	-218.587636	-29.583499	234.633218	-171.748725	266.624585	186.670447	-161.852304	197.490529	170.536727	-106.517326	122.955787	1069.496825	-493.942403	208.285073	1060.903819	-500.142686	221.609815	1092.205873	-485.672443	280.311332	1009.604671	-512.550783	419.792061	928.189068	-496.172648	458.098825	912.543813	-388.061988	377.622881	821.556742	-509.635252	351.332855	742.614149	-481.868864	286.300378	682.516933	-472.806476	375.868013	734.177203	-452.714697	201.424676	566.298923	-451.130184	202.544380	574.961952	-363.201858	118.473950	554.757064	-403.621795	414.707993	501.911464	-421.562283	337.423327	474.017250	-479.461425	-220.821299	919.310910	-288.536963	-17.336588	79.624058	-485.351252	-17.507702	79.415740	-84.757398	
